M48
; DRILL file {KiCad 7.0.9-7.0.9~ubuntu23.04.1} date qui 23 nov 2023 11:23:00
; FORMAT={-:-/ absolute / inch / decimal}
; #@! TF.CreationDate,2023-11-23T11:23:00-03:00
; #@! TF.GenerationSoftware,Kicad,Pcbnew,7.0.9-7.0.9~ubuntu23.04.1
; #@! TF.FileFunction,Plated,1,2,PTH
FMAT,2
INCH
; #@! TA.AperFunction,Plated,PTH,ViaDrill
T1C0.0157
; #@! TA.AperFunction,Plated,PTH,ComponentDrill
T2C0.0236
; #@! TA.AperFunction,Plated,PTH,ComponentDrill
T3C0.0295
; #@! TA.AperFunction,Plated,PTH,ComponentDrill
T4C0.0300
; #@! TA.AperFunction,Plated,PTH,ComponentDrill
T5C0.0315
; #@! TA.AperFunction,Plated,PTH,ComponentDrill
T6C0.0354
; #@! TA.AperFunction,Plated,PTH,ComponentDrill
T7C0.0394
; #@! TA.AperFunction,Plated,PTH,ComponentDrill
T8C0.0433
; #@! TA.AperFunction,Plated,PTH,ComponentDrill
T9C0.0472
; #@! TA.AperFunction,Plated,PTH,ComponentDrill
T10C0.0551
; #@! TA.AperFunction,Plated,PTH,ComponentDrill
T11C0.1260
%
G90
G05
T1
X2.55Y-1.4
X2.7Y-1.75
X3.7069Y-1.7213
X4.4982Y-2.1111
X4.6293Y-2.1111
X4.6869Y-2.1111
X4.8039Y-1.7212
X5.1516Y-2.8124
X5.5645Y-1.6926
X6.3531Y-2.8516
X6.38Y-1.5913
X6.5514Y-2.7124
X7.277Y-2.0276
X7.4703Y-1.7787
T2
X1.46Y-1.6409
X1.46Y-1.7
X1.9244Y-6.1484
X1.9756Y-5.9516
X2.62Y-5.19
X2.6712Y-4.9931
X3.6488Y-5.1969
X3.7Y-5.0
X4.6488Y-5.1969
X4.7Y-5.0
X5.7Y-5.2
X5.7512Y-5.0031
X6.7488Y-5.1969
X6.8Y-5.0
X7.8Y-5.2
X7.8512Y-5.0031
X8.8Y-5.2
X8.8512Y-5.0031
X9.8031Y-5.2
X9.8543Y-5.0031
T3
X2.85Y-3.8
X2.9Y-3.8
X2.95Y-3.8
X3.88Y-3.8
X3.93Y-3.8
X3.98Y-3.8
X4.91Y-3.8
X4.96Y-3.8
X5.01Y-3.8
X5.94Y-3.81
X5.99Y-3.81
X6.04Y-3.81
X6.96Y-3.81
X7.01Y-3.81
X7.06Y-3.81
X7.99Y-3.8
X8.04Y-3.8
X8.09Y-3.8
X9.02Y-3.8
X9.07Y-3.8
X9.12Y-3.8
X10.04Y-3.8
X10.09Y-3.8
X10.14Y-3.8
T4
X2.8Y-2.1746
X2.8Y-3.1516
X2.8525Y-4.326
X2.8525Y-4.426
X2.8525Y-4.826
X2.8525Y-5.126
X2.9Y-2.1746
X2.9Y-3.1516
X3.0Y-2.1746
X3.0Y-3.1516
X3.1Y-2.1746
X3.1Y-3.1516
X3.2Y-2.1746
X3.2Y-3.1516
X3.3Y-2.1746
X3.3Y-3.1516
X3.4Y-2.1746
X3.4Y-3.1516
X3.5Y-2.1746
X3.5Y-3.1516
X3.6Y-2.1746
X3.6Y-3.1516
X3.7Y-2.1746
X3.7Y-3.1516
X3.8Y-2.1746
X3.8Y-3.1516
X3.8771Y-4.326
X3.8771Y-4.426
X3.8771Y-4.826
X3.8771Y-5.126
X3.9Y-2.1746
X3.9Y-3.1516
X4.0Y-2.1746
X4.0Y-3.1516
X4.1Y-2.1746
X4.1Y-3.1516
X4.2Y-2.1746
X4.2Y-3.1516
X4.905Y-4.33
X4.905Y-4.43
X4.905Y-4.83
X4.905Y-5.13
X5.93Y-4.3367
X5.93Y-4.4367
X5.93Y-4.8367
X5.93Y-5.1367
X6.955Y-4.3367
X6.955Y-4.4367
X6.955Y-4.8367
X6.955Y-5.1367
X7.9822Y-4.326
X7.9822Y-4.426
X7.9822Y-4.826
X7.9822Y-5.126
X9.0072Y-4.326
X9.0072Y-4.426
X9.0072Y-4.826
X9.0072Y-5.126
X10.0322Y-4.326
X10.0322Y-4.426
X10.0322Y-4.826
X10.0322Y-5.126
T5
X0.98Y-4.869
X0.98Y-5.169
X1.32Y-1.4016
X1.32Y-1.5
X1.5104Y-4.9646
X1.5104Y-5.063
X1.6Y-1.4016
X1.6Y-1.5
X1.6Y-1.95
X1.85Y-1.35
X1.85Y-1.75
X2.0Y-1.95
X2.3Y-2.4531
X2.3Y-2.5516
X2.3Y-2.7016
X2.3Y-2.8
X2.5Y-3.55
X2.64Y-4.04
X2.64Y-4.44
X2.9Y-3.55
X3.53Y-3.55
X3.68Y-4.04
X3.68Y-4.44
X3.93Y-3.55
X4.56Y-3.55
X4.7Y-4.04
X4.7Y-4.44
X4.96Y-3.55
X5.59Y-3.56
X5.72Y-4.04
X5.72Y-4.44
X5.99Y-3.56
X6.61Y-3.56
X6.76Y-4.04
X6.76Y-4.44
X7.01Y-3.56
X7.64Y-3.55
X7.78Y-4.04
X7.78Y-4.44
X8.04Y-3.55
X8.67Y-3.55
X8.81Y-4.04
X8.81Y-4.44
X9.07Y-3.55
X9.69Y-3.55
X9.83Y-4.04
X9.83Y-4.44
X10.09Y-3.55
T6
X1.19Y-3.62
X1.19Y-3.72
X1.25Y-1.9147
X1.35Y-1.9147
X2.85Y-4.1
X2.95Y-4.1
X3.88Y-4.1
X3.98Y-4.1
X4.91Y-4.1
X5.01Y-4.1
X5.94Y-4.11
X6.04Y-4.11
X6.96Y-4.11
X7.06Y-4.11
X7.99Y-4.1
X8.09Y-4.1
X9.02Y-4.1
X9.12Y-4.1
X10.04Y-4.1
X10.14Y-4.1
T7
X1.2469Y-2.2158
X1.4068Y-3.664
X1.4516Y-3.3733
X1.6484Y-3.3733
X1.702Y-3.664
X1.8531Y-2.2158
X2.45Y-1.3996
X2.45Y-1.4996
X2.45Y-1.5996
X2.45Y-1.6996
X9.75Y-2.2124
X9.75Y-2.3124
X9.75Y-2.4124
X9.75Y-2.5124
X9.75Y-2.6124
X9.75Y-2.7124
X9.75Y-2.8124
X9.75Y-2.9124
X9.75Y-3.0124
X9.75Y-3.1124
X9.85Y-2.2124
X9.85Y-2.3124
X9.85Y-2.4124
X9.85Y-2.5124
X9.85Y-2.6124
X9.85Y-2.7124
X9.85Y-2.8124
X9.85Y-2.9124
X9.85Y-3.0124
X9.85Y-3.1124
T8
X1.0372Y-1.7
X1.0372Y-1.8
X1.0372Y-1.9
X1.5402Y-3.9947
X1.5402Y-4.1347
X1.5402Y-4.2747
X1.5402Y-4.4147
X1.9402Y-3.9947
X1.9402Y-4.1347
X1.9402Y-4.2747
X1.9402Y-4.4147
X2.15Y-1.4
X2.15Y-1.7
T9
X1.19Y-3.88
X1.19Y-4.68
T10
X1.4Y-6.1147
X1.6Y-6.1147
X2.57Y-6.16
X2.77Y-6.16
X2.8Y-1.4
X3.0Y-1.4
X3.2Y-1.4
X3.5143Y-1.4
X3.56Y-6.16
X3.7143Y-1.4
X3.76Y-6.16
X3.9143Y-1.4
X4.2285Y-1.4
X4.4285Y-1.4
X4.5898Y-6.16
X4.6285Y-1.4
X4.7898Y-6.16
X4.9428Y-1.4
X5.1428Y-1.4
X5.3428Y-1.4
X5.657Y-1.4
X5.66Y-6.16
X5.857Y-1.4
X5.86Y-6.16
X6.057Y-1.4
X6.3713Y-1.4
X6.5713Y-1.4
X6.6498Y-6.16
X6.7713Y-1.4
X6.8498Y-6.16
X7.0855Y-1.4
X7.2855Y-1.4
X7.4855Y-1.4
X7.6Y-6.16
X7.7998Y-1.4
X7.8Y-6.16
X7.9998Y-1.4
X8.1998Y-1.4
X8.5607Y-1.4
X8.69Y-6.16
X8.7607Y-1.4
X8.89Y-6.16
X9.0807Y-1.4
X9.2807Y-1.4
X9.5996Y-1.4
X9.6398Y-6.16
X9.7996Y-1.4
X9.8398Y-6.16
T11
X1.04Y-1.26
X1.04Y-6.26
X10.29Y-1.26
X10.29Y-6.25
T8
G00X1.049Y-5.5918
M15
G01X1.049Y-5.6114
M16
G05
G00X1.8927Y-5.5918
M15
G01X1.8927Y-5.6114
M16
G05
G00X2.3215Y-4.5528
M15
G01X2.3018Y-4.5528
M16
G05
G00X2.3215Y-5.3965
M15
G01X2.3018Y-5.3965
M16
G05
G00X3.3301Y-4.5555
M15
G01X3.3498Y-4.5555
M16
G05
G00X3.3301Y-5.3992
M15
G01X3.3498Y-5.3992
M16
G05
G00X4.353Y-4.5545
M15
G01X4.3727Y-4.5545
M16
G05
G00X4.353Y-5.3982
M15
G01X4.3727Y-5.3982
M16
G05
G00X5.3822Y-4.5612
M15
G01X5.4019Y-4.5612
M16
G05
G00X5.3822Y-5.4049
M15
G01X5.4019Y-5.4049
M16
G05
G00X6.4072Y-4.5612
M15
G01X6.4269Y-4.5612
M16
G05
G00X6.4072Y-5.4049
M15
G01X6.4269Y-5.4049
M16
G05
G00X7.4301Y-4.5555
M15
G01X7.4498Y-4.5555
M16
G05
G00X7.4301Y-5.3992
M15
G01X7.4498Y-5.3992
M16
G05
G00X8.4551Y-4.5555
M15
G01X8.4748Y-4.5555
M16
G05
G00X8.4551Y-5.3992
M15
G01X8.4748Y-5.3992
M16
G05
G00X9.4801Y-4.5555
M15
G01X9.4998Y-4.5555
M16
G05
G00X9.4801Y-5.3992
M15
G01X9.4998Y-5.3992
M16
G05
T0
M30
